# xmcd
#
# Track frame offsets:
#	150
#	17977
#	39702
#	56617
#	72637
#	92090
#	117545
#	136105
#	150092
#	168027
#	180515
#	206280
#
# Disc length: 3114 seconds
#
# Revision: 0
# Processed by: cddbd v1.4PL0 Copyright (c) Steve Scherf et al.
# Submitted via: EasyCDDAExtractor 4.6.0.1
#
DISCID=990c280c
DTITLE=Jay Stulo - Damn Good Reason to Play the Blues
DYEAR=2000
DGENRE=Blues
TTITLE0=Do You Think I Can
TTITLE1=Meet Me in the Valley
TTITLE2=Separate Ways
TTITLE3=The Bible Song
TTITLE4=Damn Good Reason
TTITLE5=August One
TTITLE6=How Long
TTITLE7=L-Mo
TTITLE8=I Found Out
TTITLE9=Big Dog and Li'l Dog
TTITLE10=The Ballad of Hollis Brown
TTITLE11=Ain't Gonna be Your Food
EXTD=
EXTT0=
EXTT1=
EXTT2=
EXTT3=
EXTT4=
EXTT5=
EXTT6=
EXTT7=
EXTT8=
EXTT9=
EXTT10=
EXTT11=
PLAYORDER=
